<svg xmlns="http://www.w3.org/2000/svg" width="192.233" height="167.483" viewBox="0 0 192.233 167.483">
  <g id="Group_129" data-name="Group 129" transform="translate(-280.715 -9805.527)">
    <path id="Path_70" data-name="Path 70" d="M8,.085,52.874-12.022C75.943-14.73,73,19.216,73,19.216v97.672a8.028,8.028,0,0,1-8,8.055l-31.646,8.538c-13,7.186-35.339-11.761-33.354-30.69V8.14A8.028,8.028,0,0,1,8,.085Z" transform="matrix(0.966, 0.259, -0.259, 0.966, 399.167, 9823.647)" fill="#fff"/>
    <path id="Path_71" data-name="Path 71" d="M8.124,134.955,53,147.062c19.481,8.031,20.126-31.239,20.126-31.239l.267-103.511c0-4.449-26.995-9.469-50.577,14.754L-19.3,104.728C-28.633,130.078,3.706,134.955,8.124,134.955Z" transform="matrix(-0.966, 0.259, -0.259, -0.966, 389.948, 9954.054)" fill="#fff"/>
  </g>
</svg>
